# Blender 3.3.0
# www.blender.org
o swivel
v -0.022871 0.025105 0.027243
v 0.000000 0.025105 0.004372
v -0.012491 0.025105 0.034512
v 0.000000 0.025105 0.036717
v 0.000000 0.025105 -0.027973
v -0.012491 0.025105 -0.025800
v -0.022871 0.025105 -0.018499
v -0.030156 0.025105 -0.008135
v -0.032345 0.025105 0.004372
v -0.030156 0.025105 0.016847
v 0.022871 0.025105 0.027243
v 0.012491 0.025105 0.034512
v 0.012491 0.025105 -0.025800
v 0.022871 0.025105 -0.018499
v 0.030156 0.025105 -0.008135
v 0.032345 0.025105 0.004372
v 0.030156 0.025105 0.016847
v 0.012491 0.027745 0.034512
v 0.000000 0.027745 0.036717
v 0.022871 0.027745 0.027243
v 0.030156 0.027745 0.016847
v 0.032345 0.027745 0.004372
v 0.030156 0.027745 -0.008135
v 0.022871 0.027745 -0.018499
v 0.012491 0.027745 -0.025800
v 0.000000 0.027745 -0.027973
v -0.012491 0.027745 0.034512
v -0.022871 0.027745 0.027243
v -0.030156 0.027745 0.016847
v -0.032345 0.027745 0.004372
v -0.030156 0.027745 -0.008135
v -0.022871 0.027745 -0.018499
v -0.012491 0.027745 -0.025800
v -0.019788 0.003951 0.023508
v -0.010709 0.003996 0.029575
v -0.010709 0.025801 0.029575
v -0.019788 0.025801 0.023508
v -0.000000 0.004391 0.031705
v -0.000000 0.025801 0.031705
v -0.026534 -0.008856 -0.004610
v -0.027984 -0.001653 0.003720
v -0.027984 0.025801 0.003720
v -0.026534 0.025801 -0.004610
v -0.025854 0.003448 0.014429
v -0.025854 0.025801 0.014430
v -0.009475 0.025801 0.026596
v -0.009475 0.003996 0.026596
v -0.017508 0.003951 0.021229
v -0.017508 0.025801 0.021229
v -0.000000 0.025801 0.028481
v -0.000000 0.004391 0.028481
v -0.023556 0.025801 -0.003376
v -0.023556 -0.008856 -0.003376
v -0.020768 -0.015773 -0.008377
v -0.020769 0.025801 -0.008377
v -0.024760 0.025801 0.003720
v -0.024760 -0.001653 0.003720
v -0.022876 0.025801 0.013196
v -0.022876 0.003448 0.013196
v -0.023782 -0.015773 -0.009841
v -0.023783 0.025801 -0.009841
v -0.020757 -0.023324 -0.014520
v -0.020757 0.022900 -0.016283
v -0.020745 -0.026858 -0.019245
v -0.020745 -0.003149 -0.030348
v -0.020734 -0.027745 -0.025342
v -0.020734 -0.010153 -0.034461
v -0.020722 -0.027064 -0.030753
v -0.020722 -0.015218 -0.036696
v -0.020710 -0.023933 -0.034792
v -0.020710 -0.020121 -0.036717
v -0.023934 -0.020121 -0.036717
v -0.023934 -0.023933 -0.034792
v -0.023904 -0.027064 -0.030753
v -0.023904 -0.014711 -0.036696
v -0.023874 -0.027745 -0.025342
v -0.023874 -0.009645 -0.034461
v -0.023843 -0.026858 -0.019245
v -0.023843 -0.002582 -0.030348
v -0.023813 -0.023324 -0.014520
v -0.023813 0.022900 -0.016283
v 0.019788 0.003951 0.023508
v 0.019788 0.025801 0.023508
v 0.010709 0.025801 0.029575
v 0.010709 0.003996 0.029575
v 0.026534 -0.008856 -0.004610
v 0.026534 0.025801 -0.004610
v 0.027985 0.025801 0.003720
v 0.027985 -0.001653 0.003720
v 0.025854 0.025801 0.014430
v 0.025854 0.003448 0.014429
v 0.009475 0.025801 0.026596
v 0.017508 0.025801 0.021229
v 0.017508 0.003951 0.021229
v 0.009475 0.003996 0.026596
v 0.023556 0.025801 -0.003376
v 0.020769 0.025801 -0.008377
v 0.020769 -0.015773 -0.008377
v 0.023556 -0.008856 -0.003376
v 0.024761 0.025801 0.003720
v 0.024761 -0.001653 0.003720
v 0.022876 0.025801 0.013196
v 0.022876 0.003448 0.013196
v 0.023783 -0.015773 -0.009841
v 0.023783 0.025801 -0.009841
v 0.020757 0.022900 -0.016283
v 0.020757 -0.023324 -0.014520
v 0.020745 -0.003090 -0.030348
v 0.020745 -0.026858 -0.019245
v 0.020734 -0.010153 -0.034461
v 0.020734 -0.027745 -0.025342
v 0.020722 -0.015218 -0.036696
v 0.020722 -0.027064 -0.030753
v 0.020710 -0.020121 -0.036717
v 0.020710 -0.023933 -0.034792
v 0.023934 -0.020121 -0.036717
v 0.023904 -0.014711 -0.036696
v 0.023904 -0.027064 -0.030753
v 0.023934 -0.023933 -0.034792
v 0.023874 -0.009645 -0.034461
v 0.023874 -0.027745 -0.025342
v 0.023843 -0.002582 -0.030348
v 0.023843 -0.026858 -0.019245
v 0.023813 0.022900 -0.016283
v 0.023813 -0.023324 -0.014520
vn -0.0000 -1.0000 -0.0000
vn 0.1738 -0.0000 0.9848
vn 0.5736 -0.0000 0.8191
vn 0.8190 -0.0000 0.5739
vn 0.9850 -0.0000 0.1728
vn 0.9850 -0.0000 -0.1724
vn 0.8181 -0.0000 -0.5750
vn 0.5753 -0.0000 -0.8179
vn 0.1714 -0.0000 -0.9852
vn -0.1738 -0.0000 0.9848
vn -0.5736 -0.0000 0.8191
vn -0.8190 -0.0000 0.5739
vn -0.9850 -0.0000 0.1728
vn -0.9850 -0.0000 -0.1724
vn -0.8181 -0.0000 -0.5750
vn -0.5753 -0.0000 -0.8179
vn -0.1714 -0.0000 -0.9852
vn -0.5556 -0.0000 0.8315
vn -0.1951 -0.0000 0.9808
vn -0.9852 -0.0000 -0.1715
vn -0.9808 -0.0000 0.1951
vn -0.8315 -0.0000 0.5556
vn 0.5556 -0.0000 -0.8315
vn 0.1951 -0.0000 -0.9808
vn 0.8735 -0.0000 0.4868
vn 0.9859 -0.0000 0.1674
vn 0.9808 -0.0000 -0.1951
vn 0.8315 -0.0000 -0.5556
vn -0.8850 -0.0000 -0.4655
vn 1.0000 -0.0000 0.0019
vn 1.0000 0.0001 0.0015
vn 1.0000 0.0001 0.0024
vn 1.0000 0.0002 0.0004
vn 1.0000 0.0008 0.0018
vn 1.0000 0.0008 0.0015
vn 1.0000 0.0012 0.0023
vn 1.0000 0.0012 0.0024
vn 1.0000 0.0024 0.0047
vn -0.9999 0.0062 0.0123
vn -0.9999 0.0056 0.0116
vn -1.0000 0.0029 0.0060
vn -1.0000 0.0032 0.0063
vn -1.0000 0.0023 0.0046
vn -1.0000 0.0019 0.0041
vn -1.0000 0.0022 0.0048
vn -1.0000 0.0001 0.0020
vn -1.0000 0.0002 0.0061
vn -1.0000 -0.0000 0.0047
vn 0.5556 -0.0000 0.8315
vn 0.1951 -0.0000 0.9808
vn 0.9852 -0.0000 -0.1715
vn 0.9808 -0.0000 0.1951
vn 0.8315 -0.0000 0.5556
vn -0.5556 -0.0000 -0.8315
vn -0.1951 -0.0000 -0.9808
vn -0.8735 -0.0000 0.4868
vn -0.9859 -0.0000 0.1674
vn -0.9808 -0.0000 -0.1951
vn -0.8315 -0.0000 -0.5556
vn 0.8850 -0.0000 -0.4655
vn -1.0000 0.0001 0.0015
vn -1.0000 -0.0000 0.0019
vn -1.0000 0.0002 0.0004
vn -1.0000 0.0001 0.0024
vn -1.0000 0.0008 0.0015
vn -1.0000 0.0008 0.0018
vn -1.0000 0.0012 0.0024
vn -1.0000 0.0012 0.0023
vn -1.0000 0.0024 0.0047
vn 0.9999 0.0056 0.0116
vn 0.9999 0.0062 0.0123
vn 1.0000 0.0032 0.0063
vn 1.0000 0.0029 0.0060
vn 1.0000 0.0019 0.0041
vn 1.0000 0.0023 0.0046
vn 1.0000 0.0001 0.0020
vn 1.0000 0.0022 0.0048
vn 1.0000 -0.0000 0.0047
vn 1.0000 0.0002 0.0061
vn -0.0000 -0.4508 -0.8926
vn -0.0000 0.0039 -1.0000
vn -0.0007 0.0044 -1.0000
vn -0.0642 0.4025 -0.9132
vn -0.0652 0.4030 -0.9129
vn -0.0811 0.5013 -0.8615
vn -0.0822 0.5016 -0.8612
vn -0.0789 0.4816 -0.8728
vn -0.0000 0.4759 -0.8795
vn -0.0000 0.9118 -0.4106
vn -0.1649 0.9260 -0.3395
vn 0.3819 -0.4857 0.7863
vn -0.0000 -0.6310 0.7758
vn -0.0000 -0.8008 0.5989
vn -0.0000 -0.9896 0.1440
vn -0.0000 -0.9922 -0.1248
vn -0.0000 -0.7904 -0.6126
vn 0.2914 -0.6481 0.7036
vn 0.3367 -0.6371 0.6934
vn -0.0039 -1.0000 0.0016
vn -0.0034 -1.0000 0.0034
vn -0.0368 -0.9993 -0.0000
vn -0.0384 -0.9991 0.0159
vn -0.0000 -0.7564 0.6541
vn 0.2741 -0.6978 0.6618
vn -0.1646 -0.9028 0.3973
vn -0.0000 -0.8805 0.4740
vn -0.0331 -0.9989 0.0331
vn -0.0203 -0.9986 0.0489
vn 0.0007 0.0044 -1.0000
vn 0.0652 0.4030 -0.9129
vn 0.0642 0.4025 -0.9132
vn 0.0922 0.5043 -0.8586
vn 0.0811 0.5013 -0.8615
vn -0.0000 0.4751 -0.8799
vn 0.0880 0.4813 -0.8721
vn 0.1649 0.9260 -0.3395
vn -0.3819 -0.4857 0.7863
vn -0.3367 -0.6371 0.6934
vn -0.2914 -0.6481 0.7036
vn 0.0034 -1.0000 0.0034
vn 0.0039 -1.0000 0.0016
vn 0.0384 -0.9991 0.0159
vn 0.0368 -0.9993 -0.0000
vn -0.2741 -0.6978 0.6618
vn 0.1646 -0.9028 0.3973
vn 0.0331 -0.9989 0.0331
vn 0.0203 -0.9986 0.0489
vt 0.752988 0.042681
vt 0.653940 0.186413
vt 0.690448 0.015864
vt 0.622348 0.014747
vt 0.685539 0.358119
vt 0.748772 0.332903
vt 0.797696 0.285478
vt 0.824545 0.222977
vt 0.825625 0.154813
vt 0.800398 0.091653
vt 0.510215 0.087359
vt 0.559110 0.040034
vt 0.617475 0.357066
vt 0.554873 0.330165
vt 0.507532 0.281317
vt 0.482256 0.218004
vt 0.483345 0.150000
vt 0.550366 0.026534
vt 0.619654 0.000106
vt 0.497957 0.078910
vt 0.467618 0.146639
vt 0.467614 0.220697
vt 0.494038 0.290058
vt 0.546424 0.342423
vt 0.614113 0.372786
vt 0.688234 0.372761
vt 0.693813 0.000135
vt 0.761435 0.030422
vt 0.813897 0.082913
vt 0.840267 0.152117
vt 0.840267 0.226342
vt 0.809955 0.293925
vt 0.757510 0.346396
vt 0.227409 0.480866
vt 0.214608 0.606427
vt 0.000106 0.585940
vt 0.023846 0.446592
vt 0.200581 0.743579
vt 0.007294 0.723275
vt 0.282736 0.209388
vt 0.266551 0.270002
vt 0.135440 0.240738
vt 0.196909 0.196641
vt 0.242657 0.364659
vt 0.074573 0.327003
vt 0.467402 0.614893
vt 0.243510 0.604878
vt 0.256615 0.483258
vt 0.467402 0.487024
vt 0.444771 0.736640
vt 0.234257 0.725601
vt 0.358544 0.225993
vt 0.289187 0.212847
vt 0.298280 0.169062
vt 0.303912 0.189143
vt 0.405594 0.281008
vt 0.280188 0.273986
vt 0.442992 0.371136
vt 0.271712 0.369543
vt 0.293764 0.165773
vt 0.259420 0.177817
vt 0.306001 0.127459
vt 0.283804 0.173524
vt 0.306339 0.098430
vt 0.296834 0.111306
vt 0.310104 0.079356
vt 0.298539 0.079355
vt 0.314818 0.059767
vt 0.301538 0.047072
vt 0.319253 0.034581
vt 0.315743 0.000106
vt 0.313273 0.028283
vt 0.311107 0.038231
vt 0.308116 0.059454
vt 0.307351 0.055859
vt 0.305147 0.079446
vt 0.301607 0.083470
vt 0.302902 0.100382
vt 0.293225 0.113705
vt 0.302157 0.124644
vt 0.275802 0.171796
vt 0.206474 0.877019
vt 0.079586 0.909925
vt 0.038100 0.830059
vt 0.203126 0.811506
vt 0.221148 0.960185
vt 0.190874 0.999894
vt 0.161836 0.991512
vt 0.217944 0.954761
vt 0.123859 0.963241
vt 0.210747 0.928635
vt 0.408600 0.836129
vt 0.365723 0.911446
vt 0.226796 0.875797
vt 0.228493 0.808451
vt 0.257037 0.998547
vt 0.233693 0.999066
vt 0.219691 0.959611
vt 0.219874 0.959793
vt 0.285004 0.989938
vt 0.221461 0.953882
vt 0.321854 0.962235
vt 0.225933 0.927285
vt 0.221220 0.959420
vt 0.213857 0.999143
vt 0.224234 0.990736
vt 0.220090 0.958097
vt 0.222205 0.971826
vt 0.222521 0.959138
vt 0.222615 0.968671
vt 0.222384 0.961300
vt 0.222679 0.967041
vt 0.222375 0.962856
vt 0.222720 0.965586
vt 0.222537 0.964345
vt 0.222174 0.965645
vt 0.222358 0.967181
vt 0.221961 0.962927
vt 0.221964 0.964413
vt 0.222563 0.968779
vt 0.221813 0.961482
vt 0.222993 0.971815
vt 0.221293 0.959734
vt 0.219941 0.990710
vt 0.219761 0.958634
s 0
f 1/1/1 2/2/1 3/3/1
f 3/3/1 2/2/1 4/4/1
f 5/5/1 2/2/1 6/6/1
f 6/6/1 2/2/1 7/7/1
f 7/7/1 2/2/1 8/8/1
f 8/8/1 2/2/1 9/9/1
f 9/9/1 2/2/1 10/10/1
f 2/2/1 1/1/1 10/10/1
f 11/11/1 12/12/1 2/2/1
f 12/12/1 4/4/1 2/2/1
f 5/5/1 13/13/1 2/2/1
f 13/13/1 14/14/1 2/2/1
f 14/14/1 15/15/1 2/2/1
f 15/15/1 16/16/1 2/2/1
f 16/16/1 17/17/1 2/2/1
f 17/17/1 11/11/1 2/2/1
f 4/4/2 12/12/2 18/18/2
f 4/4/2 18/18/2 19/19/2
f 11/11/3 20/20/3 18/18/3
f 11/11/3 18/18/3 12/12/3
f 11/11/4 17/17/4 21/21/4
f 11/11/4 21/21/4 20/20/4
f 16/16/5 22/22/5 21/21/5
f 16/16/5 21/21/5 17/17/5
f 16/16/6 15/15/6 23/23/6
f 16/16/6 23/23/6 22/22/6
f 14/14/7 24/24/7 23/23/7
f 14/14/7 23/23/7 15/15/7
f 14/14/8 13/13/8 25/25/8
f 14/14/8 25/25/8 24/24/8
f 5/5/9 26/26/9 25/25/9
f 5/5/9 25/25/9 13/13/9
f 4/4/10 19/19/10 27/27/10
f 4/4/10 27/27/10 3/3/10
f 1/1/11 3/3/11 27/27/11
f 1/1/11 27/27/11 28/28/11
f 1/1/12 28/28/12 29/29/12
f 1/1/12 29/29/12 10/10/12
f 9/9/13 10/10/13 29/29/13
f 9/9/13 29/29/13 30/30/13
f 9/9/14 30/30/14 31/31/14
f 9/9/14 31/31/14 8/8/14
f 7/7/15 8/8/15 31/31/15
f 7/7/15 31/31/15 32/32/15
f 7/7/16 32/32/16 33/33/16
f 7/7/16 33/33/16 6/6/16
f 5/5/17 6/6/17 33/33/17
f 5/5/17 33/33/17 26/26/17
f 34/34/18 35/35/18 36/36/18
f 34/34/18 36/36/18 37/37/18
f 35/35/19 38/38/19 39/39/19
f 35/35/19 39/39/19 36/36/19
f 40/40/20 41/41/20 42/42/20
f 40/40/20 42/42/20 43/43/20
f 41/41/21 44/44/21 45/45/21
f 41/41/21 45/45/21 42/42/21
f 44/44/22 34/34/22 37/37/22
f 44/44/22 37/37/22 45/45/22
f 46/46/23 47/47/23 48/48/23
f 46/46/23 48/48/23 49/49/23
f 50/50/24 51/51/24 47/47/24
f 50/50/24 47/47/24 46/46/24
f 52/52/25 53/53/25 54/54/25
f 52/52/25 54/54/25 55/55/25
f 56/56/26 57/57/26 53/53/26
f 56/56/26 53/53/26 52/52/26
f 58/58/27 59/59/27 57/57/27
f 58/58/27 57/57/27 56/56/27
f 49/49/28 48/48/28 59/59/28
f 49/49/28 59/59/28 58/58/28
f 60/60/29 40/40/29 43/43/29
f 60/60/29 43/43/29 61/61/29
f 55/55/30 54/54/30 62/62/30
f 55/55/31 62/62/31 63/63/31
f 63/63/32 62/62/32 64/64/32
f 63/63/33 64/64/33 65/65/33
f 65/65/34 64/64/34 66/66/34
f 65/65/35 66/66/35 67/67/35
f 67/67/36 66/66/36 68/68/36
f 67/67/37 68/68/37 69/69/37
f 69/69/38 68/68/38 70/70/38
f 69/69/38 70/70/38 71/71/38
f 72/72/39 73/73/39 74/74/39
f 72/72/40 74/74/40 75/75/40
f 75/75/41 74/74/41 76/76/41
f 75/75/42 76/76/42 77/77/42
f 77/77/43 76/76/43 78/78/43
f 77/77/44 78/78/44 79/79/44
f 79/79/45 78/78/45 80/80/45
f 79/79/46 80/80/46 81/81/46
f 81/81/47 80/80/47 60/60/47
f 81/81/48 60/60/48 61/61/48
f 82/82/49 83/83/49 84/84/49
f 82/82/49 84/84/49 85/85/49
f 85/85/50 84/84/50 39/39/50
f 85/85/50 39/39/50 38/38/50
f 86/86/51 87/87/51 88/88/51
f 86/86/51 88/88/51 89/89/51
f 89/89/52 88/88/52 90/90/52
f 89/89/52 90/90/52 91/91/52
f 83/83/53 82/82/53 91/91/53
f 83/83/53 91/91/53 90/90/53
f 92/92/54 93/93/54 94/94/54
f 92/92/54 94/94/54 95/95/54
f 50/50/55 92/92/55 95/95/55
f 50/50/55 95/95/55 51/51/55
f 96/96/56 97/97/56 98/98/56
f 96/96/56 98/98/56 99/99/56
f 100/100/57 96/96/57 99/99/57
f 100/100/57 99/99/57 101/101/57
f 102/102/58 100/100/58 101/101/58
f 102/102/58 101/101/58 103/103/58
f 93/93/59 102/102/59 103/103/59
f 93/93/59 103/103/59 94/94/59
f 104/104/60 105/105/60 87/87/60
f 104/104/60 87/87/60 86/86/60
f 97/97/61 106/106/61 107/107/61
f 97/97/62 107/107/62 98/98/62
f 106/106/63 108/108/63 109/109/63
f 106/106/64 109/109/64 107/107/64
f 108/108/65 110/110/65 111/111/65
f 108/108/66 111/111/66 109/109/66
f 110/110/67 112/112/67 113/113/67
f 110/110/68 113/113/68 111/111/68
f 112/112/69 114/114/69 115/115/69
f 112/112/69 115/115/69 113/113/69
f 116/116/70 117/117/70 118/118/70
f 116/116/71 118/118/71 119/119/71
f 117/117/72 120/120/72 121/121/72
f 117/117/73 121/121/73 118/118/73
f 120/120/74 122/122/74 123/123/74
f 120/120/75 123/123/75 121/121/75
f 122/122/76 124/124/76 125/125/76
f 122/122/77 125/125/77 123/123/77
f 124/124/78 105/105/78 104/104/78
f 124/124/79 104/104/79 125/125/79
f 73/73/80 72/72/80 71/71/80
f 73/73/80 71/71/80 70/70/80
f 119/119/80 115/115/80 114/114/80
f 119/119/80 114/114/80 116/116/80
f 117/117/81 116/116/81 114/114/81
f 117/117/82 114/114/82 112/112/82
f 120/120/83 117/117/83 112/112/83
f 120/120/84 112/112/84 110/110/84
f 122/122/85 120/120/85 110/110/85
f 122/122/86 110/110/86 108/108/86
f 124/124/87 122/122/87 108/108/87
f 124/124/88 108/108/88 106/106/88
f 105/105/89 124/124/89 106/106/89
f 105/105/90 106/106/90 97/97/90
f 125/125/91 104/104/91 98/98/91
f 125/125/92 98/98/92 107/107/92
f 123/123/93 125/125/93 107/107/93
f 123/123/93 107/107/93 109/109/93
f 121/121/94 123/123/94 109/109/94
f 121/121/94 109/109/94 111/111/94
f 118/118/95 121/121/95 111/111/95
f 118/118/95 111/111/95 113/113/95
f 119/119/96 118/118/96 113/113/96
f 119/119/96 113/113/96 115/115/96
f 104/104/97 86/86/97 99/99/97
f 104/104/98 99/99/98 98/98/98
f 82/82/99 85/85/99 95/95/99
f 82/82/100 95/95/100 94/94/100
f 85/85/101 38/38/101 51/51/101
f 85/85/102 51/51/102 95/95/102
f 86/86/103 89/89/103 101/101/103
f 86/86/104 101/101/104 99/99/104
f 89/89/105 91/91/105 103/103/105
f 89/89/106 103/103/106 101/101/106
f 91/91/107 82/82/107 94/94/107
f 91/91/108 94/94/108 103/103/108
f 75/75/109 69/69/109 71/71/109
f 75/75/81 71/71/81 72/72/81
f 77/77/110 67/67/110 69/69/110
f 77/77/111 69/69/111 75/75/111
f 79/79/112 65/65/112 67/67/112
f 79/79/113 67/67/113 77/77/113
f 81/81/114 63/63/114 65/65/114
f 81/81/115 65/65/115 79/79/115
f 61/61/116 55/55/116 63/63/116
f 61/61/89 63/63/89 81/81/89
f 80/80/92 62/62/92 54/54/92
f 80/80/117 54/54/117 60/60/117
f 78/78/93 64/64/93 62/62/93
f 78/78/93 62/62/93 80/80/93
f 76/76/94 66/66/94 64/64/94
f 76/76/94 64/64/94 78/78/94
f 74/74/95 68/68/95 66/66/95
f 74/74/95 66/66/95 76/76/95
f 73/73/96 70/70/96 68/68/96
f 73/73/96 68/68/96 74/74/96
f 60/60/118 54/54/118 53/53/118
f 60/60/119 53/53/119 40/40/119
f 34/34/120 48/48/120 47/47/120
f 34/34/121 47/47/121 35/35/121
f 35/35/122 47/47/122 51/51/122
f 35/35/123 51/51/123 38/38/123
f 40/40/124 53/53/124 57/57/124
f 40/40/103 57/57/103 41/41/103
f 41/41/106 57/57/106 59/59/106
f 41/41/125 59/59/125 44/44/125
f 48/48/126 34/34/126 44/44/126
f 48/48/127 44/44/127 59/59/127
