# Blender 3.3.0
# www.blender.org
o center_hubcap
v -0.014718 0.011252 0.011111
v -0.014718 0.015912 -0.000141
v -0.020857 0.009601 -0.000141
v -0.020857 0.006789 0.006648
v 0.015282 0.015912 -0.000141
v 0.015282 0.011252 0.011111
v 0.021420 0.006789 0.006648
v 0.021420 0.009601 -0.000141
v -0.014718 0.011252 -0.011392
v -0.020857 0.006789 -0.006930
v 0.015282 0.011252 -0.011392
v 0.021420 0.006789 -0.006930
v -0.014718 0.000000 -0.016053
v -0.020857 0.000000 -0.009742
v 0.015282 0.000000 -0.016053
v 0.021420 0.000000 -0.009742
v -0.014718 -0.011252 -0.011392
v -0.020857 -0.006789 -0.006930
v 0.015282 -0.011252 -0.011392
v 0.021420 -0.006789 -0.006930
v -0.014718 -0.015912 -0.000141
v -0.020857 -0.009601 -0.000141
v 0.015282 -0.015912 -0.000141
v 0.021420 -0.009601 -0.000141
v -0.014718 -0.011252 0.011111
v -0.020857 -0.006789 0.006648
v 0.015282 -0.011252 0.011111
v 0.021420 -0.006789 0.006648
v -0.014718 0.000000 0.015771
v -0.020857 0.000000 0.009460
v 0.015282 0.000000 0.015771
v 0.021420 0.000000 0.009460
vn -0.6887 0.6699 0.2775
vn 0.6887 0.6699 0.2775
vn -0.6887 0.6699 -0.2775
vn 0.6887 0.6699 -0.2775
vn -0.6887 0.2775 -0.6699
vn 0.6887 0.2775 -0.6699
vn -0.6887 -0.2775 -0.6699
vn 0.6887 -0.2775 -0.6699
vn -0.6887 -0.6699 -0.2775
vn 0.6887 -0.6699 -0.2775
vn -0.6887 -0.6699 0.2775
vn 0.6887 -0.6699 0.2775
vn -0.6887 -0.2775 0.6699
vn 0.6887 -0.2775 0.6699
vn -0.6887 0.2775 0.6699
vn 0.6887 0.2775 0.6699
vt 0.852511 0.500189
vt 0.646513 0.498400
vt 0.703269 0.373236
vt 0.806011 0.371988
vt 0.000100 0.354367
vt 0.000100 0.147003
vt 0.125224 0.203312
vt 0.128920 0.306613
vt 0.499053 0.352714
vt 0.626922 0.303952
vt 0.145062 0.501862
vt 0.202994 0.378070
vt 0.498557 0.145482
vt 0.622478 0.202438
vt 0.351951 0.503464
vt 0.304625 0.375494
vt 0.645481 0.000100
vt 0.692921 0.128692
vt 0.498356 0.356561
vt 0.373233 0.300252
vt 0.852871 0.000494
vt 0.795999 0.125560
vt 0.498356 0.149197
vt 0.369537 0.196952
vt 0.999900 0.147181
vt 0.871500 0.195629
vt 0.353395 0.001702
vt 0.295463 0.125494
vt 0.999900 0.354723
vt 0.875557 0.297824
vt 0.146506 0.000100
vt 0.193831 0.128070
s 0
f 1/1/1 2/2/1 3/3/1
f 1/1/1 3/3/1 4/4/1
f 5/5/2 6/6/2 7/7/2
f 5/5/2 7/7/2 8/8/2
f 2/2/3 9/9/3 10/10/3
f 2/2/3 10/10/3 3/3/3
f 11/11/4 5/5/4 8/8/4
f 11/11/4 8/8/4 12/12/4
f 9/9/5 13/13/5 14/14/5
f 9/9/5 14/14/5 10/10/5
f 15/15/6 11/11/6 12/12/6
f 15/15/6 12/12/6 16/16/6
f 13/13/7 17/17/7 18/18/7
f 13/13/7 18/18/7 14/14/7
f 19/19/8 15/15/8 16/16/8
f 19/19/8 16/16/8 20/20/8
f 17/17/9 21/21/9 22/22/9
f 17/17/9 22/22/9 18/18/9
f 23/23/10 19/19/10 20/20/10
f 23/23/10 20/20/10 24/24/10
f 21/21/11 25/25/11 26/26/11
f 21/21/11 26/26/11 22/22/11
f 27/27/12 23/23/12 24/24/12
f 27/27/12 24/24/12 28/28/12
f 25/25/13 29/29/13 30/30/13
f 25/25/13 30/30/13 26/26/13
f 31/31/14 27/27/14 28/28/14
f 31/31/14 28/28/14 32/32/14
f 29/29/15 1/1/15 4/4/15
f 29/29/15 4/4/15 30/30/15
f 6/6/16 31/31/16 32/32/16
f 6/6/16 32/32/16 7/7/16
