# Blender 3.3.0
# www.blender.org
o left_hubcap
v -0.015301 0.036958 0.037193
v -0.015301 0.045264 0.026368
v -0.008602 0.036510 0.021314
v -0.008602 0.029810 0.030045
v -0.015301 0.050485 0.013763
v -0.008602 0.040721 0.011146
v -0.015301 0.052266 0.000235
v -0.008602 0.042158 0.000235
v -0.015301 0.050485 -0.013292
v -0.008602 0.040721 -0.010676
v -0.015301 0.045264 -0.025898
v -0.008602 0.036510 -0.020844
v -0.015301 0.036958 -0.036723
v -0.008602 0.029810 -0.029575
v -0.015301 0.026133 -0.045029
v -0.008602 0.021079 -0.036274
v -0.015301 0.013528 -0.050250
v -0.008602 0.010911 -0.040486
v -0.015301 0.000000 -0.052031
v -0.008602 0.000000 -0.041923
v -0.015301 -0.013527 -0.050250
v -0.008602 -0.010911 -0.040486
v -0.015301 -0.026133 -0.045029
v -0.008602 -0.021079 -0.036275
v -0.015301 -0.036958 -0.036723
v -0.008602 -0.029810 -0.029575
v -0.015301 -0.045264 -0.025898
v -0.008602 -0.036510 -0.020844
v -0.015301 -0.050485 -0.013292
v -0.008602 -0.040721 -0.010676
v -0.015301 -0.052266 0.000235
v -0.008602 -0.042158 0.000235
v -0.015301 -0.050485 0.013763
v -0.008602 -0.040721 0.011146
v -0.015301 -0.045264 0.026368
v -0.008602 -0.036510 0.021314
v -0.015301 -0.036958 0.037193
v -0.008602 -0.029810 0.030045
v -0.015301 -0.026133 0.045499
v -0.008602 -0.021079 0.036745
v -0.015301 -0.013527 0.050721
v -0.008602 -0.010911 0.040956
v -0.015301 0.000000 0.052501
v -0.008602 0.000000 0.042393
v -0.015301 0.013528 0.050721
v -0.008602 0.010911 0.040956
v -0.015301 0.026133 0.045499
v -0.008602 0.021079 0.036745
v -0.008510 0.000000 0.000235
v 0.007996 0.029810 0.030045
v 0.007996 0.021079 0.036745
v 0.007904 0.000000 0.000235
v 0.007996 0.010911 0.040956
v 0.007996 0.000000 0.042393
v 0.007996 -0.010911 0.040956
v 0.007996 -0.021079 0.036745
v 0.007996 -0.029810 0.030045
v 0.007996 -0.036510 0.021314
v 0.007996 -0.040721 0.011146
v 0.007996 -0.042158 0.000235
v 0.007996 -0.040721 -0.010676
v 0.007996 -0.036510 -0.020844
v 0.007996 -0.029810 -0.029575
v 0.007996 -0.021079 -0.036275
v 0.007996 -0.010911 -0.040486
v 0.007996 0.000000 -0.041923
v 0.007996 0.010911 -0.040486
v 0.007996 0.021079 -0.036274
v 0.007996 0.029810 -0.029575
v 0.007996 0.036510 -0.020844
v 0.007996 0.040721 -0.010676
v 0.007996 0.042158 0.000235
v 0.007996 0.040721 0.011146
v 0.007996 0.036510 0.021314
v 0.014695 0.026133 0.045499
v 0.014695 0.036958 0.037193
v 0.014695 0.013528 0.050721
v 0.014695 0.000000 0.052501
v 0.014695 -0.013527 0.050721
v 0.014695 -0.026133 0.045499
v 0.014695 -0.036958 0.037193
v 0.014695 -0.045264 0.026368
v 0.014695 -0.050485 0.013763
v 0.014695 -0.052266 0.000235
v 0.014695 -0.050485 -0.013292
v 0.014695 -0.045264 -0.025898
v 0.014695 -0.036958 -0.036723
v 0.014695 -0.026133 -0.045029
v 0.014695 -0.013527 -0.050250
v 0.014695 0.000000 -0.052031
v 0.014695 0.013528 -0.050250
v 0.014695 0.026133 -0.045029
v 0.014695 0.036958 -0.036723
v 0.014695 0.045264 -0.025898
v 0.014695 0.050485 -0.013292
v 0.014695 0.052266 0.000235
v 0.014695 0.050485 0.013763
v 0.014695 0.045264 0.026368
vn -0.8314 -0.4409 -0.3383
vn -0.8314 -0.5134 -0.2127
vn -0.8314 -0.5510 -0.0725
vn -0.8314 -0.5510 0.0725
vn -0.8314 -0.5134 0.2127
vn -0.8314 -0.4409 0.3383
vn -0.8314 -0.3383 0.4409
vn -0.8314 -0.2127 0.5134
vn -0.8314 -0.0725 0.5510
vn -0.8314 0.0725 0.5510
vn -0.8314 0.2127 0.5134
vn -0.8314 0.3383 0.4409
vn -0.8314 0.4409 0.3383
vn -0.8314 0.5134 0.2127
vn -0.8314 0.5510 0.0725
vn -0.8314 0.5510 -0.0725
vn -0.8314 0.5134 -0.2127
vn -0.8314 0.4409 -0.3383
vn -0.8314 0.3383 -0.4409
vn -0.8314 0.2127 -0.5134
vn -0.8314 0.0725 -0.5510
vn -0.8314 -0.0725 -0.5510
vn -0.8314 -0.2127 -0.5134
vn -0.8314 -0.3383 -0.4409
vn -1.0000 -0.0017 -0.0013
vn -1.0000 -0.0020 -0.0008
vn -1.0000 -0.0022 -0.0003
vn -1.0000 -0.0022 0.0003
vn -1.0000 -0.0020 0.0008
vn -1.0000 -0.0017 0.0013
vn -1.0000 -0.0013 0.0017
vn -1.0000 -0.0008 0.0020
vn -1.0000 -0.0003 0.0022
vn -1.0000 0.0003 0.0022
vn -1.0000 0.0008 0.0020
vn -1.0000 0.0013 0.0017
vn -1.0000 0.0017 0.0013
vn -1.0000 0.0020 0.0008
vn -1.0000 0.0022 0.0003
vn -1.0000 0.0022 -0.0003
vn -1.0000 0.0020 -0.0008
vn -1.0000 0.0017 -0.0013
vn -1.0000 0.0013 -0.0017
vn -1.0000 0.0008 -0.0020
vn -1.0000 0.0003 -0.0022
vn -1.0000 -0.0003 -0.0022
vn -1.0000 -0.0008 -0.0020
vn -1.0000 -0.0013 -0.0017
vn 1.0000 -0.0013 -0.0017
vn 1.0000 -0.0008 -0.0020
vn 1.0000 -0.0003 -0.0022
vn 1.0000 0.0003 -0.0022
vn 1.0000 0.0008 -0.0020
vn 1.0000 0.0013 -0.0017
vn 1.0000 0.0017 -0.0013
vn 1.0000 0.0020 -0.0008
vn 1.0000 0.0022 -0.0003
vn 1.0000 0.0022 0.0003
vn 1.0000 0.0020 0.0008
vn 1.0000 0.0017 0.0013
vn 1.0000 0.0013 0.0017
vn 1.0000 0.0008 0.0020
vn 1.0000 0.0003 0.0022
vn 1.0000 -0.0003 0.0022
vn 1.0000 -0.0008 0.0020
vn 1.0000 -0.0013 0.0017
vn 1.0000 -0.0017 0.0013
vn 1.0000 -0.0020 0.0008
vn 1.0000 -0.0022 0.0003
vn 1.0000 -0.0022 -0.0003
vn 1.0000 -0.0020 -0.0008
vn 1.0000 -0.0017 -0.0013
vn 0.8314 -0.3383 -0.4409
vn 0.8314 -0.2127 -0.5134
vn 0.8314 -0.0725 -0.5510
vn 0.8314 0.0725 -0.5510
vn 0.8314 0.2127 -0.5134
vn 0.8314 0.3383 -0.4409
vn 0.8314 0.4409 -0.3383
vn 0.8314 0.5134 -0.2127
vn 0.8314 0.5510 -0.0725
vn 0.8314 0.5510 0.0725
vn 0.8314 0.5134 0.2127
vn 0.8314 0.4409 0.3383
vn 0.8314 0.3383 0.4409
vn 0.8314 0.2127 0.5134
vn 0.8314 0.0725 0.5510
vn 0.8314 -0.0725 0.5510
vn 0.8314 -0.2127 0.5134
vn 0.8314 -0.3383 0.4409
vn 0.8314 -0.4409 0.3383
vn 0.8314 -0.5134 0.2127
vn 0.8314 -0.5510 0.0725
vn 0.8314 -0.5510 -0.0725
vn 0.8314 -0.5134 -0.2127
vn 0.8314 -0.4409 -0.3383
vt 0.017130 0.846458
vt 0.000100 0.782900
vt 0.056882 0.775708
vt 0.070116 0.824814
vt 0.000100 0.717100
vt 0.056809 0.724850
vt 0.017130 0.653543
vt 0.069901 0.675705
vt 0.050030 0.596558
vt 0.095267 0.631624
vt 0.096558 0.550030
vt 0.131177 0.595609
vt 0.153542 0.517130
vt 0.175185 0.570116
vt 0.217100 0.500100
vt 0.224292 0.556883
vt 0.282900 0.500100
vt 0.275151 0.556809
vt 0.346458 0.517130
vt 0.324295 0.569901
vt 0.403442 0.550030
vt 0.368376 0.595267
vt 0.449970 0.596558
vt 0.404391 0.631178
vt 0.482870 0.653542
vt 0.429884 0.675186
vt 0.499900 0.717100
vt 0.443118 0.724292
vt 0.499900 0.782900
vt 0.443191 0.775151
vt 0.482870 0.846458
vt 0.430098 0.824295
vt 0.449970 0.903442
vt 0.404733 0.868377
vt 0.403442 0.949970
vt 0.368822 0.904391
vt 0.346458 0.982870
vt 0.324814 0.929884
vt 0.282900 0.999900
vt 0.275708 0.943118
vt 0.217100 0.999900
vt 0.224849 0.943191
vt 0.153542 0.982870
vt 0.175705 0.930099
vt 0.096558 0.949970
vt 0.131623 0.904733
vt 0.050030 0.903442
vt 0.095609 0.868822
vt 0.250000 0.750000
vt 0.131178 0.404391
vt 0.095267 0.368377
vt 0.250000 0.250000
vt 0.069902 0.324296
vt 0.056809 0.275151
vt 0.056882 0.224293
vt 0.070116 0.175186
vt 0.095609 0.131178
vt 0.131623 0.095267
vt 0.175705 0.069901
vt 0.224849 0.056809
vt 0.275708 0.056882
vt 0.324814 0.070116
vt 0.368822 0.095609
vt 0.404733 0.131623
vt 0.430099 0.175705
vt 0.443191 0.224849
vt 0.443118 0.275708
vt 0.429884 0.324814
vt 0.404391 0.368823
vt 0.368377 0.404733
vt 0.324295 0.430099
vt 0.275151 0.443191
vt 0.224292 0.443118
vt 0.175186 0.429884
vt 0.050030 0.403443
vt 0.096558 0.449970
vt 0.017130 0.346458
vt 0.000100 0.282900
vt 0.000100 0.217100
vt 0.017130 0.153542
vt 0.050030 0.096558
vt 0.096558 0.050030
vt 0.153542 0.017130
vt 0.217100 0.000100
vt 0.282900 0.000100
vt 0.346458 0.017130
vt 0.403442 0.050030
vt 0.449970 0.096558
vt 0.482870 0.153542
vt 0.499900 0.217100
vt 0.499900 0.282900
vt 0.482870 0.346458
vt 0.449970 0.403442
vt 0.403442 0.449970
vt 0.346458 0.482870
vt 0.282900 0.499900
vt 0.217100 0.499900
vt 0.153542 0.482870
s 0
f 1/1/1 2/2/1 3/3/1
f 1/1/1 3/3/1 4/4/1
f 2/2/2 5/5/2 6/6/2
f 2/2/2 6/6/2 3/3/2
f 5/5/3 7/7/3 8/8/3
f 5/5/3 8/8/3 6/6/3
f 7/7/4 9/9/4 10/10/4
f 7/7/4 10/10/4 8/8/4
f 9/9/5 11/11/5 12/12/5
f 9/9/5 12/12/5 10/10/5
f 11/11/6 13/13/6 14/14/6
f 11/11/6 14/14/6 12/12/6
f 13/13/7 15/15/7 16/16/7
f 13/13/7 16/16/7 14/14/7
f 15/15/8 17/17/8 18/18/8
f 15/15/8 18/18/8 16/16/8
f 17/17/9 19/19/9 20/20/9
f 17/17/9 20/20/9 18/18/9
f 19/19/10 21/21/10 22/22/10
f 19/19/10 22/22/10 20/20/10
f 21/21/11 23/23/11 24/24/11
f 21/21/11 24/24/11 22/22/11
f 23/23/12 25/25/12 26/26/12
f 23/23/12 26/26/12 24/24/12
f 25/25/13 27/27/13 28/28/13
f 25/25/13 28/28/13 26/26/13
f 27/27/14 29/29/14 30/30/14
f 27/27/14 30/30/14 28/28/14
f 29/29/15 31/31/15 32/32/15
f 29/29/15 32/32/15 30/30/15
f 31/31/16 33/33/16 34/34/16
f 31/31/16 34/34/16 32/32/16
f 33/33/17 35/35/17 36/36/17
f 33/33/17 36/36/17 34/34/17
f 35/35/18 37/37/18 38/38/18
f 35/35/18 38/38/18 36/36/18
f 37/37/19 39/39/19 40/40/19
f 37/37/19 40/40/19 38/38/19
f 39/39/20 41/41/20 42/42/20
f 39/39/20 42/42/20 40/40/20
f 41/41/21 43/43/21 44/44/21
f 41/41/21 44/44/21 42/42/21
f 43/43/22 45/45/22 46/46/22
f 43/43/22 46/46/22 44/44/22
f 45/45/23 47/47/23 48/48/23
f 45/45/23 48/48/23 46/46/23
f 47/47/24 1/1/24 4/4/24
f 47/47/24 4/4/24 48/48/24
f 3/3/25 49/49/25 4/4/25
f 6/6/26 49/49/26 3/3/26
f 8/8/27 49/49/27 6/6/27
f 10/10/28 49/49/28 8/8/28
f 12/12/29 49/49/29 10/10/29
f 14/14/30 49/49/30 12/12/30
f 16/16/31 49/49/31 14/14/31
f 18/18/32 49/49/32 16/16/32
f 20/20/33 49/49/33 18/18/33
f 22/22/34 49/49/34 20/20/34
f 24/24/35 49/49/35 22/22/35
f 26/26/36 49/49/36 24/24/36
f 28/28/37 49/49/37 26/26/37
f 30/30/38 49/49/38 28/28/38
f 32/32/39 49/49/39 30/30/39
f 34/34/40 49/49/40 32/32/40
f 36/36/41 49/49/41 34/34/41
f 38/38/42 49/49/42 36/36/42
f 40/40/43 49/49/43 38/38/43
f 42/42/44 49/49/44 40/40/44
f 44/44/45 49/49/45 42/42/45
f 46/46/46 49/49/46 44/44/46
f 48/48/47 49/49/47 46/46/47
f 4/4/48 49/49/48 48/48/48
f 50/50/49 51/51/49 52/52/49
f 51/51/50 53/53/50 52/52/50
f 53/53/51 54/54/51 52/52/51
f 54/54/52 55/55/52 52/52/52
f 55/55/53 56/56/53 52/52/53
f 56/56/54 57/57/54 52/52/54
f 57/57/55 58/58/55 52/52/55
f 58/58/56 59/59/56 52/52/56
f 59/59/57 60/60/57 52/52/57
f 60/60/58 61/61/58 52/52/58
f 61/61/59 62/62/59 52/52/59
f 62/62/60 63/63/60 52/52/60
f 63/63/61 64/64/61 52/52/61
f 64/64/62 65/65/62 52/52/62
f 65/65/63 66/66/63 52/52/63
f 66/66/64 67/67/64 52/52/64
f 67/67/65 68/68/65 52/52/65
f 68/68/66 69/69/66 52/52/66
f 69/69/67 70/70/67 52/52/67
f 70/70/68 71/71/68 52/52/68
f 71/71/69 72/72/69 52/52/69
f 72/72/70 73/73/70 52/52/70
f 73/73/71 74/74/71 52/52/71
f 74/74/72 50/50/72 52/52/72
f 75/75/73 51/51/73 50/50/73
f 75/75/73 50/50/73 76/76/73
f 77/77/74 53/53/74 51/51/74
f 77/77/74 51/51/74 75/75/74
f 78/78/75 54/54/75 53/53/75
f 78/78/75 53/53/75 77/77/75
f 79/79/76 55/55/76 54/54/76
f 79/79/76 54/54/76 78/78/76
f 80/80/77 56/56/77 55/55/77
f 80/80/77 55/55/77 79/79/77
f 81/81/78 57/57/78 56/56/78
f 81/81/78 56/56/78 80/80/78
f 82/82/79 58/58/79 57/57/79
f 82/82/79 57/57/79 81/81/79
f 83/83/80 59/59/80 58/58/80
f 83/83/80 58/58/80 82/82/80
f 84/84/81 60/60/81 59/59/81
f 84/84/81 59/59/81 83/83/81
f 85/85/82 61/61/82 60/60/82
f 85/85/82 60/60/82 84/84/82
f 86/86/83 62/62/83 61/61/83
f 86/86/83 61/61/83 85/85/83
f 87/87/84 63/63/84 62/62/84
f 87/87/84 62/62/84 86/86/84
f 88/88/85 64/64/85 63/63/85
f 88/88/85 63/63/85 87/87/85
f 89/89/86 65/65/86 64/64/86
f 89/89/86 64/64/86 88/88/86
f 90/90/87 66/66/87 65/65/87
f 90/90/87 65/65/87 89/89/87
f 91/91/88 67/67/88 66/66/88
f 91/91/88 66/66/88 90/90/88
f 92/92/89 68/68/89 67/67/89
f 92/92/89 67/67/89 91/91/89
f 93/93/90 69/69/90 68/68/90
f 93/93/90 68/68/90 92/92/90
f 94/94/91 70/70/91 69/69/91
f 94/94/91 69/69/91 93/93/91
f 95/95/92 71/71/92 70/70/92
f 95/95/92 70/70/92 94/94/92
f 96/96/93 72/72/93 71/71/93
f 96/96/93 71/71/93 95/95/93
f 97/97/94 73/73/94 72/72/94
f 97/97/94 72/72/94 96/96/94
f 98/98/95 74/74/95 73/73/95
f 98/98/95 73/73/95 97/97/95
f 76/76/96 50/50/96 74/74/96
f 76/76/96 74/74/96 98/98/96
